<mxfile host="app.diagrams.net" modified="2024-06-03T02:42:53.036Z" agent="Mozilla/5.0 (Windows NT 10.0; Win64; x64) AppleWebKit/537.36 (KHTML, like Gecko) Chrome/125.0.0.0 Safari/537.36" etag="WbOznATsYKS5WXlDNOqZ" version="24.4.13" type="google">
  <diagram name="Page-1" id="fgo2FbFXpPIKeqnntVB4">
    <mxGraphModel grid="1" page="1" gridSize="10" guides="1" tooltips="1" connect="1" arrows="1" fold="1" pageScale="1" pageWidth="850" pageHeight="1100" math="0" shadow="0">
      <root>
        <mxCell id="0" />
        <mxCell id="1" parent="0" />
        <mxCell id="H_8MwK6IMm4dnX6be_Ov-1" value="Mulai" style="ellipse;whiteSpace=wrap;html=1;" vertex="1" parent="1">
          <mxGeometry x="-280" y="250" width="120" height="80" as="geometry" />
        </mxCell>
        <mxCell id="H_8MwK6IMm4dnX6be_Ov-6" style="edgeStyle=orthogonalEdgeStyle;rounded=0;orthogonalLoop=1;jettySize=auto;html=1;entryX=0;entryY=0.5;entryDx=0;entryDy=0;" edge="1" parent="1" source="H_8MwK6IMm4dnX6be_Ov-2" target="H_8MwK6IMm4dnX6be_Ov-5">
          <mxGeometry relative="1" as="geometry" />
        </mxCell>
        <mxCell id="hghbDPyWJf-7h_5x1G-H-12" style="edgeStyle=orthogonalEdgeStyle;rounded=0;orthogonalLoop=1;jettySize=auto;html=1;entryX=0;entryY=0.5;entryDx=0;entryDy=0;" edge="1" parent="1" source="H_8MwK6IMm4dnX6be_Ov-7" target="hghbDPyWJf-7h_5x1G-H-1">
          <mxGeometry relative="1" as="geometry">
            <mxPoint x="570" y="295" as="targetPoint" />
          </mxGeometry>
        </mxCell>
        <mxCell id="hghbDPyWJf-7h_5x1G-H-22" value="TRUE" style="edgeLabel;html=1;align=center;verticalAlign=middle;resizable=0;points=[];" connectable="0" vertex="1" parent="hghbDPyWJf-7h_5x1G-H-12">
          <mxGeometry x="-0.1444" y="-1" relative="1" as="geometry">
            <mxPoint as="offset" />
          </mxGeometry>
        </mxCell>
        <mxCell id="hghbDPyWJf-7h_5x1G-H-19" style="edgeStyle=orthogonalEdgeStyle;rounded=0;orthogonalLoop=1;jettySize=auto;html=1;entryX=0.439;entryY=0.994;entryDx=0;entryDy=0;entryPerimeter=0;" edge="1" parent="1" source="H_8MwK6IMm4dnX6be_Ov-7">
          <mxGeometry relative="1" as="geometry">
            <mxPoint x="462.68000000000006" y="199.64" as="targetPoint" />
          </mxGeometry>
        </mxCell>
        <mxCell id="hghbDPyWJf-7h_5x1G-H-24" value="FALSE" style="edgeLabel;html=1;align=center;verticalAlign=middle;resizable=0;points=[];" connectable="0" vertex="1" parent="hghbDPyWJf-7h_5x1G-H-19">
          <mxGeometry x="-0.15" relative="1" as="geometry">
            <mxPoint as="offset" />
          </mxGeometry>
        </mxCell>
        <mxCell id="H_8MwK6IMm4dnX6be_Ov-7" value="kata = panjangKata &amp;lt; 0" style="rhombus;whiteSpace=wrap;html=1;" vertex="1" parent="1">
          <mxGeometry x="390" y="245" width="150" height="90" as="geometry" />
        </mxCell>
        <mxCell id="H_8MwK6IMm4dnX6be_Ov-21" value="End" style="ellipse;whiteSpace=wrap;html=1;" vertex="1" parent="1">
          <mxGeometry x="900" y="125" width="120" height="70" as="geometry" />
        </mxCell>
        <mxCell id="ntFJJBcb0HM-VVXcqOzL-3" style="edgeStyle=orthogonalEdgeStyle;rounded=0;orthogonalLoop=1;jettySize=auto;html=1;entryX=1;entryY=0.75;entryDx=0;entryDy=0;" edge="1" parent="1" source="hghbDPyWJf-7h_5x1G-H-1" target="hghbDPyWJf-7h_5x1G-H-3">
          <mxGeometry relative="1" as="geometry">
            <Array as="points">
              <mxPoint x="680" y="415" />
            </Array>
          </mxGeometry>
        </mxCell>
        <mxCell id="hghbDPyWJf-7h_5x1G-H-1" value="kata2 = kata2 +kata2(PanjangKata - 1)" style="rounded=0;whiteSpace=wrap;html=1;" vertex="1" parent="1">
          <mxGeometry x="610" y="260" width="130" height="60" as="geometry" />
        </mxCell>
        <mxCell id="hghbDPyWJf-7h_5x1G-H-18" value="" style="edgeStyle=orthogonalEdgeStyle;rounded=0;orthogonalLoop=1;jettySize=auto;html=1;" edge="1" parent="1" source="hghbDPyWJf-7h_5x1G-H-3" target="H_8MwK6IMm4dnX6be_Ov-7">
          <mxGeometry relative="1" as="geometry" />
        </mxCell>
        <mxCell id="hghbDPyWJf-7h_5x1G-H-3" value="PanjangKata-1" style="rounded=0;whiteSpace=wrap;html=1;" vertex="1" parent="1">
          <mxGeometry x="405" y="370" width="120" height="60" as="geometry" />
        </mxCell>
        <mxCell id="ntFJJBcb0HM-VVXcqOzL-2" style="edgeStyle=orthogonalEdgeStyle;rounded=0;orthogonalLoop=1;jettySize=auto;html=1;entryX=0;entryY=0.5;entryDx=0;entryDy=0;" edge="1" parent="1" source="hghbDPyWJf-7h_5x1G-H-6" target="H_8MwK6IMm4dnX6be_Ov-7">
          <mxGeometry relative="1" as="geometry" />
        </mxCell>
        <mxCell id="hghbDPyWJf-7h_5x1G-H-6" value="kata2=&quot;&quot;" style="rounded=0;whiteSpace=wrap;html=1;" vertex="1" parent="1">
          <mxGeometry x="230" y="260" width="120" height="60" as="geometry" />
        </mxCell>
        <mxCell id="hghbDPyWJf-7h_5x1G-H-7" value="" style="edgeStyle=orthogonalEdgeStyle;rounded=0;orthogonalLoop=1;jettySize=auto;html=1;exitX=1;exitY=0.5;exitDx=0;exitDy=0;" edge="1" parent="1" source="H_8MwK6IMm4dnX6be_Ov-1" target="H_8MwK6IMm4dnX6be_Ov-2">
          <mxGeometry relative="1" as="geometry">
            <mxPoint x="260" y="290" as="targetPoint" />
            <mxPoint x="-160" y="290" as="sourcePoint" />
          </mxGeometry>
        </mxCell>
        <mxCell id="H_8MwK6IMm4dnX6be_Ov-2" value="INPUT kata" style="shape=parallelogram;perimeter=parallelogramPerimeter;whiteSpace=wrap;html=1;fixedSize=1;" vertex="1" parent="1">
          <mxGeometry x="-130" y="260" width="150" height="60" as="geometry" />
        </mxCell>
        <mxCell id="hghbDPyWJf-7h_5x1G-H-8" value="" style="edgeStyle=orthogonalEdgeStyle;rounded=0;orthogonalLoop=1;jettySize=auto;html=1;exitX=1;exitY=0.5;exitDx=0;exitDy=0;" edge="1" parent="1" source="H_8MwK6IMm4dnX6be_Ov-2" target="H_8MwK6IMm4dnX6be_Ov-5">
          <mxGeometry relative="1" as="geometry">
            <mxPoint x="260" y="290" as="targetPoint" />
            <mxPoint x="10" y="290" as="sourcePoint" />
          </mxGeometry>
        </mxCell>
        <mxCell id="hghbDPyWJf-7h_5x1G-H-9" style="edgeStyle=orthogonalEdgeStyle;rounded=0;orthogonalLoop=1;jettySize=auto;html=1;entryX=0;entryY=0.5;entryDx=0;entryDy=0;" edge="1" parent="1" source="H_8MwK6IMm4dnX6be_Ov-5" target="hghbDPyWJf-7h_5x1G-H-6">
          <mxGeometry relative="1" as="geometry" />
        </mxCell>
        <mxCell id="H_8MwK6IMm4dnX6be_Ov-5" value="kata = panjangKata.length" style="rounded=0;whiteSpace=wrap;html=1;" vertex="1" parent="1">
          <mxGeometry x="80" y="260" width="120" height="60" as="geometry" />
        </mxCell>
        <mxCell id="hghbDPyWJf-7h_5x1G-H-32" style="edgeStyle=orthogonalEdgeStyle;rounded=0;orthogonalLoop=1;jettySize=auto;html=1;" edge="1" parent="1" source="hghbDPyWJf-7h_5x1G-H-25">
          <mxGeometry relative="1" as="geometry">
            <mxPoint x="960" y="130" as="targetPoint" />
          </mxGeometry>
        </mxCell>
        <mxCell id="hghbDPyWJf-7h_5x1G-H-25" value="OUTPUT &quot;polindrom&quot;" style="shape=parallelogram;perimeter=parallelogramPerimeter;whiteSpace=wrap;html=1;fixedSize=1;" vertex="1" parent="1">
          <mxGeometry x="610" y="50" width="140" height="60" as="geometry" />
        </mxCell>
        <mxCell id="LeYsAZgogVE3nq7tjiJu-3" style="edgeStyle=none;curved=1;rounded=0;orthogonalLoop=1;jettySize=auto;html=1;fontSize=12;startSize=8;endSize=8;" edge="1" parent="1" source="LeYsAZgogVE3nq7tjiJu-1" target="H_8MwK6IMm4dnX6be_Ov-21">
          <mxGeometry relative="1" as="geometry" />
        </mxCell>
        <mxCell id="LeYsAZgogVE3nq7tjiJu-13" value="FALSE" style="edgeLabel;html=1;align=center;verticalAlign=middle;resizable=0;points=[];fontSize=12;" connectable="0" vertex="1" parent="LeYsAZgogVE3nq7tjiJu-3">
          <mxGeometry x="0.5363" relative="1" as="geometry">
            <mxPoint as="offset" />
          </mxGeometry>
        </mxCell>
        <mxCell id="LeYsAZgogVE3nq7tjiJu-6" style="edgeStyle=orthogonalEdgeStyle;rounded=0;orthogonalLoop=1;jettySize=auto;html=1;fontSize=12;startSize=8;endSize=8;" edge="1" parent="1" source="LeYsAZgogVE3nq7tjiJu-1" target="hghbDPyWJf-7h_5x1G-H-25">
          <mxGeometry relative="1" as="geometry">
            <Array as="points">
              <mxPoint x="680" y="165" />
            </Array>
          </mxGeometry>
        </mxCell>
        <mxCell id="LeYsAZgogVE3nq7tjiJu-12" value="TRUE" style="edgeLabel;html=1;align=center;verticalAlign=middle;resizable=0;points=[];fontSize=12;" connectable="0" vertex="1" parent="LeYsAZgogVE3nq7tjiJu-6">
          <mxGeometry x="0.7739" y="3" relative="1" as="geometry">
            <mxPoint as="offset" />
          </mxGeometry>
        </mxCell>
        <mxCell id="LeYsAZgogVE3nq7tjiJu-1" value="kata == kata2" style="rhombus;whiteSpace=wrap;html=1;" vertex="1" parent="1">
          <mxGeometry x="417.5" y="130" width="95" height="70" as="geometry" />
        </mxCell>
      </root>
    </mxGraphModel>
  </diagram>
</mxfile>
